/* XPM */
static char *_1554577be874d5d949a1570b5ebfb2d1ne7ZxuPZ6OyFeUq[] = {
/* columns rows colors chars-per-pixel */
"272 68 4 1 ",
"  c None",
". c #68D3E3",
"X c #9BE0EE",
"o c #CBEFF6",
/* pixels */
"                                                                                                                                                                                                                                                                                ",
"                                                                                                                                                                                                                                                                                ",
"                                                                                                                                                                                                                                                                                ",
"                                                                                                                                                                                                                                                                                ",
"                                                                                                                      ..                            ..  .                                                                                                                       ",
"                                                                                                                     .o.                           .oo..o.                                                                                                                      ",
"                                                        ...                                                         .Xo.                            .XXXXo.                                                                                                                     ",
"                                                      ..ooo..                                ..                     .o.         .                    .XXXo.                                                                                                                     ",
"                                                     .oooooo.                               .oo..                  .Xo.    .    oo.                ..XXXo.                                                                                                                      ",
"                                                    .ooooooo.                          .     .ooo.                 .Xo.   .X.   .X.               .ooXXo.                      .........                                                            .......                     ",
"                                                   .ooooXXooo.                       ..X.     .Xo.                .XXo.    oo   XX.              .oXXXo.                       .oooXXoo.                                                           .oooXXoo.                    ",
"                                                  .XXXXXXXXoo.                       ..X.     .Xo.               .XXXo.    .oooXXo              .oXXXo.   XXX                  oXX...XXX.                                                          oXX...XXX.                   ",
"                                                  .XXXXXXo.oo.                        .XX.   .XXo.             ..XXXXo.      ....               .XXXo.  XXoooX                .oXX   ..XX.                                                        .oX.   ..XX.                  ",
"                                                 .XXX..Xo. .oo.                        .XX...XXo.            ..Xoo..Xo.                        .oXXo.  XoooXX                 oXX.     .X.                                                        oXX.     .X.                  ",
"                                                  ... .Xo. .oo.                        .ooXXXXXo.           .  ...  .oo.       XX              .oXXo.  XooX                  .oX.       .                                                        .oX.       .                   ",
"                                                      .Xo.  .o.                         ...oooo.           .  .     .Xo..  .  XooX             .XXo.  XoooX                  .oXX..                                                              .oXX..                         ",
"                                                     .XXXo.  .                             ....            . .      .Xo.  .o. XoooX           .oXXo.  XooX                    .oooo.                                                              .XXXX.                        ",
"                                                 . ..XXXXo.                                                . .       .o. .o.   XooX           .oXXo.  XooX                     ....                                                                .oXXX..                      ",
"                                                .o.XXXXXooo.                                                .        .o. .o    XooX            .XXoo.  XoX                                                                                          .ooXXX.                     ",
"                                               ..oXXXXXo..o.                                                         .Xo.o.    XooX            .XXXo.   XX                          XXXX                                                             .oXXXX.                    ",
"                                               .ooXXXXo.  .                                                   XXX    .XXo.    XooX          oX  .XXXo.  XoX                       XXoooXX                                                             .oXXXX..                  ",
"                                               .oo..XXo.                                                     XoooX   .Xo.     XoX           ooX  ..XXo.  XX                        XoooooX                                         ..                  .oooXXX.                 ",
"                                               .o.  .Xo.                                                    XooXX   .Xo.     XoX         Xo  oX    .XXo.                            XXXXoX                                        .ooo.                .....XXX.                ",
"                                               .o.  .XXo.                                                    XX    .Xoo.    XooX         Xo  oX     .XXo.                               X                                       .ooXXXo.                    .oXX..              ",
"               ..                               .    .XXo..                                              XX       .XXo.    XooX           ooooX   ..Xoo.                                                                        .oX.XXX.                     .oXXX.             ",
"               .o                                     ...oo..                                           XooX     .XXo.      XX            XXXX  ..XXo..                                      XXX                                .o. .XXo.                    .oXXXX.            ",
"               Xo                                        ..oo.                                         XooX     .XXo.                          .oXXo.                                       XoooX                               .o.   .o.                     .oXXXX.      .    ",
"              .Xo.                                        .Xo.                                        XooX     .XXoo.                        ..oXXo.                                       XooXX                                 .    .o.                      .ooXXX.    .o.   ",
"            ..oXXo.                                      .XXo.                                         XX     .XXoo.                        .oXXXXXo.                                       XX                                        .X.                       ..ooXX.  .oo.   ",
"           .oXXXXoo.                        .         ...XXXo.                                                .Xoo.                       ..oooXXXXoo.X.                                        .   XX  .                             .X.                         ...XX...o.    ",
"          .oXo.ooXoo.                      .o.       .XXXXXo.                                            X    .XXo.           X          .oooooXXXXXXo.                                             XoX                              .Xo.                           ..ooXX.     ",
"        ..oXo. .ooXo.                     .oo.     ..oXXXXXo.                                           XoX    .XXo.         XoX         .ooo..oXXXXXoo..                                            XX                             .XXo.                             ..oX.     ",
"       .ooXo.   .ooXo.                  ..oooo.   .ooXXXooo.                                             X      .XXo.      .  XoX        .oo.  .oXXXXXXoo.......                                     XoX                           .XXX.                                .XX.    ",
"   ....ooXo.     .XoXo.                .oooXXX. ..oXXooo...                                                      .XXo..  ..o. XoX        .oo.  .oooXXXXXoooooooo...                                  XooX                           ...                                  .Xo.   ",
"  .ooooXXo.     .XX.oXo.             ..ooXXXXXX.oXXXo...                                                .         ..Xoo..XXo. XoX         ..    .oooXXXXXXXXXXXoooo.                                XooX                                                                .XX.    ",
"   .ooXoo.    ..oX. ..XX.           .oooXXXXXXXXXXXo.                                                  .o.          .XXXXoo.  XoX                ...oXXXXXXXXXXXXooo..                             XoooX                                                               .XXo.    ",
"    .oXX.    .oXX.    ..            .ooXXXXXooXXooo.                                                    .o.          .Xoo..   XoX                   .oXXXXXXXXXXXXoooo.                          XXXooX                                                              ...Xo.     ",
"     .oXo.    ...                    .oXXXXo..ooo..                                                     .o.        ..Xoo.    XooX                    .ooooooooXXXXXooo.                         XoooooX                                                             .XXooo.     ",
"  ...oXXo.                           .ooXXo.  ...                                                        .o.      .XXo..     XooX                     ........oXXXXXo.                           XXoXX                                                             .oXXoX.      ",
" .oXXXooXX.......                     .oXoo.                                                              .     ..XXo.      XooX                              .oXXXoo.                     ....    X   .                                                       ....oXXoo.       ",
" .ooX....XXXooooo........          .. ..Xoo.         .                                                        ..XXoo.     XXooXX                              .ooXXo.                    ..XXoo.                                                             ..oooXXXoo.        ",
"  .oX.   ......XXXXXXoooo....      .oooXXoo.         .                                                       .oXXo...    XXXXX                         XXX    .ooXXo. ..            ... .oXXXXo.                                                        ... .oXXXXXXXo.         ",
"  .oX.         ......XXXoooo...     .oooXXo.        .o.                                                       .Xo.oo.                                 XoooX   .ooXXXo.oo.         ..ooo.oXXXXXooX                                                     ..ooo.oXXXXXooo.          ",
"   .oo.              .XXXoo..        ..oXXXo.       .o.                                                      .Xo. .oo.                               XooXX    .oXXXooo..         .oooXXoXXXXXoooX                                                    .oooXXoXXXXXooo.           ",
"    ..            ....XXoo.           .ooXXXo...   .oo.                                                     .Xo.  .oo.                           .    XX   ...oXXXXo..          .oXXXXXXXXXXooXX                                                    .oXXXXXXXXXXooX.            ",
"              ....XXXXXo..             ..ooXoooo...ooo.                                                   ..XXo.   .o.                          .o.       ..ooXXXooo.         ...oXXXooXXXXoooX                                                   ...oXXXXXXXXXooo.             ",
"   ...........XXXXXooo..                 ..ooXXoooooo.                                                  ..XoXo.    .oo.                        .oo.     ..ooXXXoo...          .ooXXo...oooooXX                                                    .ooXXo...ooooo..              ",
"  .XoooooooXXXXXXoo...                     ..ooXXXXXo.                                                  .oo..oX.  .ooo.                      ..oooo.   .ooXXooo..            .oXXoo.   ..oo.                                                     .oXXXX.   ..oo.                ",
"..oXXXXXXXXXXooo...                          ..ooXXXo.                                                 . .. .oX. .ooo.                      .oooXXXX...oXXoo....             .Xoo..     .o.                                                      .oXXX.     .o.                 ",
"  .oXXoooXXXoo..                               ..oXXo.                                                 ..    .oX.ooo.                     ..ooXXXXXXooXXXo...                 ...       ..                     ..  XX                            .oXXX.     ..                  ",
"   .....ooooXoo..                                .oXXo.                                                      .oXX.o.   XX                .oooXXXXXXXXXXXo.      XXXXX              . o                            XoX                             .oXX.                         ",
"        .....XXoo.                               .oXXo.                                                       .oX..   XooX               .ooXXXXXooXXooo.      XoooooX           X                                XX                               .oX.                         ",
"            ..XXoo.                               .XXo.                                                       .oXX.    XoX                .oXXXXo..ooo..o.   XXoooXXX            oX                              XoX                               .oXX.                        ",
"           .ooX.XXo..                             .XXo.                                                        .oXX.   XooX               .ooXXo.  ...oooo.    XXX              XXooX     XXX                  XXooX                                .XXX.........               ",
"           .oX. .XXoo.                            .oXo.                                                        .oXX.    XoX                .oXoo.     .oooo.                     XooX    XoooX                   XooX                                oooXXXXXXXXX..             ",
"          .oX.   .XXXo...                         .oXo.                                                      .  .oXX.    XoX            .. ..Xoo.      .oooo.                    X X    XooXX                    XoooX                               ...oooXXXXXXXX.            ",
"          .oX.    ..XXooo.                        .oXo.                                                     . ..oXXXo..  XoX            .oooXXoo.       .oooo.                           XX   o                   XooXXX                              .o....ooXXXXX.            ",
"         .oX.    ..XXXo..                         .oXo.                                                      .ooXXXXooo.  X              .oooXXo.        .ooo.                               .                    XoooooXX                           .ooo.  ...oXXXo.           ",
"        .oX.   ..XXXoo.                           .XXo.                                                       ...oXXXooo.                 ..oXXXo.       .oo.                                                      XXoXX                             .oo.      .oXXo.           ",
"        .oX.  .XXXoo..                           .XXo.                                                           .oXXXoo.                  .ooXXXo...   .ooo.                                                    .   X                              .ooo.       .oXXo.          ",
"        .oX. .XXXo..                             .XXo.                                                            .XXXooo.                  ..ooXXXoo...ooo.                                   X                                                    .oo.         .XXo.          ",
"         .oX.XXoo.                               .XXo.                                                           .oXXXXoo.                    ..ooXXoooo....                                  XoooX                                                 .ooo..      ..XXoo.         ",
"          .oXXo..                               .oXo.                                                          ..ooXXXXo.                       ..ooXXXXXo.                                    XooX                                                  ..ooo..  ..oXXooo.         ",
"          .oXo.                                 .oXo.                                                         .  ..oXXXo.                         ..ooXXXo.                                     XoX                                                    ..ooo..oXXXooo.          ",
"           .XXo.                                .Xoo.                                                          ..  .oXXo.                           ..oXXo.                             .XX     Xo   o                                                   ..o.XXXXXoo.           ",
"            .Xoo.                               .Xoo.                                                             .oXXX.                              .oXXo.                         o  .Xooo                                                              ..XXXXoo.            ",
"            .XXo.                              .XXo.                                                               .XXo.                             ..oXXo.                               o.     o                                                         .XXXoo.             ",
"             .Xoo.                             .Xoo.                                                               .Xoo.                             .X.XXo.                           o                                                                   .oXXXo.              "
};
